<?xml version="1.0" encoding="utf-8"?>
<!-- Generator: Adobe Illustrator 17.1.0, SVG Export Plug-In . SVG Version: 6.00 Build 0)  -->
<!DOCTYPE svg PUBLIC "-//W3C//DTD SVG 1.1//EN" "http://www.w3.org/Graphics/SVG/1.1/DTD/svg11.dtd">
<svg version="1.1" xmlns="http://www.w3.org/2000/svg" xmlns:xlink="http://www.w3.org/1999/xlink" x="0px" y="0px"
	 viewBox="0 0 98 98" enable-background="new 0 0 98 98" xml:space="preserve">
<g id="Layer_6_copy_2">
	<circle fill="#C4C09C" cx="49" cy="49" r="49"/>
	<g>
		<path fill="#FFFFFF" d="M58,24.7c-2.6-5.9-9-9.7-20.6-9.7c-15.5,0-21.7,7.1-21.7,17c0,6.9,3,12.3,10.1,15c-0.9,5.3-6,7.2-6,7.2
			c7.2,1.1,10.2-3.5,11.3-5.9c2,0.3,4.1,0.5,6.5,0.5c15.6,0,21.8-7.3,21.8-17.1C59.4,29.2,58.9,26.8,58,24.7 M37.3,43.2
			c-13.2,0-17.4-3.9-17.4-11.3c0-7.4,4.5-11.4,17.7-11.4c13.2,0,17.5,3.9,17.5,11.3C55.1,39.2,50.6,43.2,37.3,43.2z"/>
		<path fill="#FFFFFF" d="M72.8,51.3c0.5-5.8,6.1-7.8,6.1-7.8c-7.7-1.2-10.6,4.1-11.5,6.3c-2.1-0.4-4.4-0.6-7-0.6
			c-15.5,0-21.7,7.1-21.7,17C38.7,76.1,45,83,60.5,83c15.6,0,21.8-7.3,21.8-17.1C82.3,59.3,79.4,54,72.8,51.3z M60.3,77.4
			c-13.2,0-17.4-3.9-17.4-11.3c0-7.4,4.5-11.4,17.7-11.4c13.2,0,17.5,3.9,17.5,11.3C78.1,73.4,73.5,77.4,60.3,77.4z"/>
	</g>
</g>
<g id="Layer_2" display="none">
</g>
</svg>
